<?xml version="1.0" encoding="UTF-8"?>
<svg version="1.1" xmlns="http://www.w3.org/2000/svg" width="96" height="96">
<path d="M0 0 C31.68 0 63.36 0 96 0 C96 31.68 96 63.36 96 96 C64.32 96 32.64 96 0 96 C0 64.32 0 32.64 0 0 Z " fill="#054A51" transform="translate(0,0)"/>
<path d="M0 0 C31.68 0 63.36 0 96 0 C96 31.68 96 63.36 96 96 C80.16 96 64.32 96 48 96 C50.83451674 93.16548326 53.17691119 91.60051427 56.62890625 89.63671875 C57.74716797 88.99669922 58.86542969 88.35667969 60.01757812 87.69726562 C61.19909469 87.02712497 62.38073597 86.35720416 63.5625 85.6875 C65.85594103 84.37973414 68.14891636 83.07115122 70.44140625 81.76171875 C71.54758301 81.13185059 72.65375977 80.50198242 73.79345703 79.85302734 C77.60242609 77.65186432 81.35430785 75.36589732 85.08959961 73.04223633 C87 72 87 72 89 72 C92.37756187 45.74214654 92.37756187 45.74214654 85.83886719 21.54492188 C80.38304876 16.60003585 73.97795743 14.22168673 67.02783203 12.04736328 C62.65987921 10.5364362 59.10239403 8.15827741 55.3125 5.5625 C51.34788925 2.78088544 51.34788925 2.78088544 46.68115234 2.21582031 C43.51885469 3.14072471 41.02006346 4.50312932 38.17578125 6.16796875 C36.50805664 7.13766602 36.50805664 7.13766602 34.80664062 8.12695312 C33.6418575 8.81368407 32.47714428 9.50053361 31.3125 10.1875 C30.17876953 10.84814453 29.04503906 11.50878906 27.87695312 12.18945312 C21.84562039 15.71091714 15.85135778 19.28296408 9.91479492 22.9621582 C8 24 8 24 6 24 C2.95630754 50.50352637 2.95630754 50.50352637 9.03076172 75.38818359 C14.19370554 80.11374007 20.30777091 82.14999162 26.95361328 84.02832031 C31.72255983 85.54943005 35.72624938 88.09504126 39.9375 90.75 C41.32071399 91.55883376 42.70473094 92.36629724 44.08984375 93.171875 C45.05019531 93.77515625 46.01054688 94.3784375 47 95 C47 95.33 47 95.66 47 96 C31.49 96 15.98 96 0 96 C0 64.32 0 32.64 0 0 Z " fill="#020910" transform="translate(0,0)"/>
<path d="M0 0 C2.56670204 1.10345368 4.97041282 2.37130938 7.40698242 3.74072266 C8.45692383 4.32893799 9.50686523 4.91715332 10.58862305 5.52319336 C11.6952832 6.15056396 12.80194336 6.77793457 13.94213867 7.42431641 C15.06555664 8.05748779 16.18897461 8.69065918 17.34643555 9.34301758 C38.4089893 21.26616704 38.4089893 21.26616704 41.00463867 23.86181641 C41.09767885 25.33535989 41.12210132 26.81332231 41.11816406 28.28979492 C41.11805077 29.70114464 41.11805077 29.70114464 41.11793518 31.14100647 C41.1127739 32.16391281 41.10761261 33.18681915 41.10229492 34.24072266 C41.10087997 35.28252182 41.09946503 36.32432098 41.0980072 37.39768982 C41.09238947 40.73992735 41.07983397 44.08209897 41.06713867 47.42431641 C41.06212596 49.68408107 41.05756265 51.94384677 41.0534668 54.20361328 C41.04241428 59.75637031 41.02565891 65.30908865 41.00463867 70.86181641 C40.29557373 71.26907959 39.58650879 71.67634277 38.85595703 72.09594727 C36.74339792 73.31004792 34.63156217 74.52540769 32.52026367 75.74169922 C30.12934016 77.11855615 27.73442194 78.48810068 25.33666992 79.85302734 C20.22260319 82.77427227 15.13938799 85.68572113 10.28979492 89.03759766 C1.45672589 95.09892938 1.45672589 95.09892938 -3.08129883 94.35791016 C-6.51739808 92.74573474 -9.26343233 91.32567441 -10.99536133 87.86181641 C-5.22387844 89.74090386 -5.22387844 89.74090386 -2.64770508 91.10400391 C0.06088938 92.15929889 0.06088938 92.15929889 2.86401367 90.81494141 C3.81791992 90.25291016 4.77182617 89.69087891 5.75463867 89.11181641 C6.71885742 88.56009766 7.68307617 88.00837891 8.67651367 87.43994141 C11.10348587 86.07198478 11.10348587 86.07198478 12.00463867 83.86181641 C8.74620612 84.87037886 5.83942652 85.94928166 2.81713867 87.54931641 C0.00463867 88.86181641 0.00463867 88.86181641 -2.99536133 87.86181641 C-2.33536133 87.53181641 -1.67536133 87.20181641 -0.99536133 86.86181641 C-0.99536133 85.87181641 -0.99536133 84.88181641 -0.99536133 83.86181641 C-2.64536133 83.53181641 -4.29536133 83.20181641 -5.99536133 82.86181641 C-5.99536133 82.20181641 -5.99536133 81.54181641 -5.99536133 80.86181641 C-6.98536133 81.19181641 -7.97536133 81.52181641 -8.99536133 81.86181641 C-9.44911133 81.36681641 -9.90286133 80.87181641 -10.37036133 80.36181641 C-11.87171652 78.63572304 -11.87171652 78.63572304 -13.99536133 78.86181641 C-14.32536133 77.54181641 -14.65536133 76.22181641 -14.99536133 74.86181641 C-12.35621841 75.8271083 -10.08656123 76.8001098 -7.75244141 78.37939453 C-5.13334925 80.10303017 -3.06363322 81.16547101 0.00463867 81.86181641 C4.63534233 80.52420957 8.33669455 78.03027056 12.31713867 75.36181641 C13.37481445 74.69666016 14.43249023 74.03150391 15.5222168 73.34619141 C17.49045855 72.1043985 19.44860352 70.84634284 21.39257812 69.56689453 C24.00463867 67.86181641 24.00463867 67.86181641 26.79711914 66.65161133 C29.39990557 64.93907345 29.39990557 64.93907345 29.6640625 61.21655273 C29.7051494 59.70946081 29.71935023 58.20147997 29.71166992 56.69384766 C29.73435188 55.50162849 29.73435188 55.50162849 29.75749207 54.2853241 C29.80046209 51.74803506 29.80921537 49.21193345 29.81713867 46.67431641 C29.84027596 44.95358151 29.8656397 43.232875 29.89331055 41.51220703 C29.95625403 37.29530478 29.98851665 33.07914712 30.00463867 28.86181641 C29.2212915 28.54937988 28.43794434 28.23694336 27.63085938 27.91503906 C24.39714142 26.61818499 21.20367982 25.24179494 18.00463867 23.86181641 C18.00463867 23.20181641 18.00463867 22.54181641 18.00463867 21.86181641 C17.29178711 21.59626953 16.57893555 21.33072266 15.84448242 21.05712891 C11.95879273 19.42161165 8.44027818 17.25598044 4.82104492 15.10400391 C1.43308618 13.60973084 -0.32103417 13.31496083 -3.99536133 13.86181641 C-6.94319978 15.18219851 -9.637078 16.83493496 -12.37036133 18.54931641 C-13.08708008 18.984375 -13.80379883 19.41943359 -14.54223633 19.86767578 C-17.471851 21.65241396 -20.38149822 23.45741245 -23.24633789 25.34472656 C-24.31706543 26.043479 -24.31706543 26.043479 -25.40942383 26.75634766 C-26.05089355 27.18407471 -26.69236328 27.61180176 -27.35327148 28.05249023 C-28.16610596 28.45310669 -28.16610596 28.45310669 -28.99536133 28.86181641 C-31.50619247 27.60640084 -31.86661579 26.36118153 -32.99536133 23.86181641 C-32.00536133 23.53181641 -31.01536133 23.20181641 -29.99536133 22.86181641 C-29.26212337 20.84673282 -29.26212337 20.84673282 -28.99536133 18.86181641 C-29.6940332 19.22275391 -30.39270508 19.58369141 -31.11254883 19.95556641 C-32.02262695 20.41962891 -32.93270508 20.88369141 -33.87036133 21.36181641 C-34.7752832 21.82587891 -35.68020508 22.28994141 -36.61254883 22.76806641 C-38.99536133 23.86181641 -38.99536133 23.86181641 -40.99536133 23.86181641 C-41.1061052 30.30374485 -41.13862835 36.74271097 -41.11743164 43.18554688 C-41.11937531 45.37574019 -41.13905955 47.56599387 -41.17700195 49.75585938 C-41.22854818 52.91020229 -41.21574307 56.0588272 -41.19067383 59.21337891 C-41.2204129 60.18860504 -41.25015198 61.16383118 -41.28079224 62.16860962 C-41.22022916 65.06230913 -41.07615187 67.17112114 -39.99536133 69.86181641 C-36.93296297 72.50876276 -33.69208835 74.24536924 -29.99536133 75.86181641 C-30.98536133 76.35681641 -30.98536133 76.35681641 -31.99536133 76.86181641 C-35.85338269 75.50635772 -38.99381507 73.63766762 -41.99536133 70.86181641 C-43.36473197 67.14724406 -43.17037916 63.69390984 -42.97192383 59.77587891 C-42.95777435 58.71895844 -42.94362488 57.66203796 -42.92904663 56.5730896 C-42.87320727 53.20807575 -42.74780189 49.84980461 -42.62036133 46.48681641 C-42.57018648 44.20175657 -42.52456158 41.91659198 -42.48364258 39.63134766 C-42.3735847 34.03921622 -42.20643096 28.45099779 -41.99536133 22.86181641 C-41.21 22.41378662 -40.42463867 21.96575684 -39.61547852 21.50415039 C-36.64060785 19.80669076 -33.66603584 18.10870999 -30.69165039 16.41040039 C-29.41572397 15.68200838 -28.13968624 14.9538113 -26.86352539 14.22583008 C-25.62376468 13.51858076 -24.38422176 12.81094956 -23.14489746 12.10293579 C-21.90964823 11.39783776 -20.67356232 10.69420348 -19.43664551 9.99203491 C-16.43991252 8.285653 -13.46918206 6.55167606 -10.53637695 4.73730469 C-9.47612305 4.08874512 -8.41586914 3.44018555 -7.32348633 2.77197266 C-6.38923828 2.18681885 -5.45499023 1.60166504 -4.49243164 0.9987793 C-1.99536133 -0.13818359 -1.99536133 -0.13818359 0 0 Z M-11.99536133 81.86181641 C-11.00536133 81.86181641 -10.01536133 81.86181641 -8.99536133 81.86181641 C-9.32536133 82.52181641 -9.65536133 83.18181641 -9.99536133 83.86181641 C-10.65536133 83.20181641 -11.31536133 82.54181641 -11.99536133 81.86181641 Z M-7.99536133 83.86181641 C-7.00536133 83.86181641 -6.01536133 83.86181641 -4.99536133 83.86181641 C-4.99536133 84.52181641 -4.99536133 85.18181641 -4.99536133 85.86181641 C-5.98536133 85.53181641 -6.97536133 85.20181641 -7.99536133 84.86181641 C-7.99536133 84.53181641 -7.99536133 84.20181641 -7.99536133 83.86181641 Z " fill="#3699A1" transform="translate(47.995361328125,1.13818359375)"/>
<path d="M0 0 C0.84691406 0.54785156 1.69382813 1.09570312 2.56640625 1.66015625 C4.58513402 2.85123216 6.60604906 4.0386071 8.62890625 5.22265625 C9.65113281 5.82207031 10.67335937 6.42148437 11.7265625 7.0390625 C14.39637201 8.65782001 14.39637201 8.65782001 16.75 9.5 C19.75981289 11.42239662 20.39028905 13.28837753 21.56640625 16.66015625 C21.91450601 20.62776064 21.84945571 24.55637894 21.75390625 28.53515625 C21.73360352 30.14003906 21.73360352 30.14003906 21.71289062 31.77734375 C21.67769249 34.40547136 21.62845318 37.03254819 21.56640625 39.66015625 C18.56640625 38.66015625 18.56640625 38.66015625 17.44140625 36.72265625 C17.15265625 36.04203125 16.86390625 35.36140625 16.56640625 34.66015625 C16.23640625 34.00015625 15.90640625 33.34015625 15.56640625 32.66015625 C13.63686293 32.38226061 13.63686293 32.38226061 11.37890625 32.34765625 C6.23541756 31.8882697 4.06753547 30.42387016 0.56640625 26.66015625 C-0.43359375 24.59765625 -0.43359375 24.59765625 -0.43359375 22.66015625 C-0.12421875 22.06203125 0.18515625 21.46390625 0.50390625 20.84765625 C2.29634273 17.15734586 2.13757898 13.34043158 0.828125 9.48828125 C-0.28185717 7.47074945 -0.28185717 7.47074945 -2.4921875 7.05078125 C-3.66974609 6.98117188 -3.66974609 6.98117188 -4.87109375 6.91015625 C-5.65355469 6.8534375 -6.43601562 6.79671875 -7.2421875 6.73828125 C-8.97175343 6.67662115 -10.70292906 6.66015625 -12.43359375 6.66015625 C-12.43359375 7.32015625 -12.43359375 7.98015625 -12.43359375 8.66015625 C-13.09359375 8.66015625 -13.75359375 8.66015625 -14.43359375 8.66015625 C-14.62850827 10.11751712 -14.81428733 11.57610218 -14.99609375 13.03515625 C-15.10050781 13.84726562 -15.20492187 14.659375 -15.3125 15.49609375 C-15.61596703 17.70914811 -15.61596703 17.70914811 -14.43359375 19.66015625 C-13.77482614 23.70687159 -14.37263908 26.17903756 -16.68359375 29.47265625 C-19.73906474 32.82334183 -22.36077872 33.22963373 -26.80859375 33.59765625 C-28.68297589 33.65010247 -30.55859829 33.68139406 -32.43359375 33.66015625 C-32.51013911 38.17633224 -32.53588071 42.25100842 -31.43359375 46.66015625 C-32.42359375 47.15515625 -32.42359375 47.15515625 -33.43359375 47.66015625 C-33.43359375 47.00015625 -33.43359375 46.34015625 -33.43359375 45.66015625 C-34.42359375 45.33015625 -35.41359375 45.00015625 -36.43359375 44.66015625 C-38.78639414 18.10126282 -38.78639414 18.10126282 -35.18701172 11.30712891 C-31.9434589 7.82023544 -27.97645128 6.02393487 -23.546875 4.43066406 C-21.44242431 3.6633759 -19.49637853 2.75128736 -17.49609375 1.74609375 C-6.52942632 -3.59485269 -6.52942632 -3.59485269 0 0 Z " fill="#022930" transform="translate(54.43359375,18.33984375)"/>
<path d="M0 0 C3.50155028 -0.32572561 5.53256684 -0.25296383 8.65625 1.4375 C12.05193323 5.15011367 11.77823199 8.37632712 11.8125 13.25 C11.83763672 14.09046875 11.86277344 14.9309375 11.88867188 15.796875 C11.94739935 17.86408228 11.97659774 19.93209111 12 22 C12.598125 21.814375 13.19625 21.62875 13.8125 21.4375 C16 21 16 21 19 22 C17.18497335 27.44507996 12.87147197 30.30787075 8 33 C7.01 33.66 6.02 34.32 5 35 C-0.34545455 35.32727273 -0.34545455 35.32727273 -3 34 C-3 33.34 -3 32.68 -3 32 C-5.65228812 30.92474806 -8.28368454 29.90543849 -11 29 C-11.33333333 27.66666667 -11.66666667 26.33333333 -12 25 C-12.99 24.67 -13.98 24.34 -15 24 C-13.19653864 22.10161962 -11.62618056 20.76858797 -9.375 19.375 C-6.29574322 16.29574322 -6.59553945 14.43726399 -6.375 10.25390625 C-5.7487633 6.48996276 -3.61962 4.6851105 -1 2 C-0.67 1.34 -0.34 0.68 0 0 Z " fill="#02292F" transform="translate(45,46)"/>
<path d="M0 0 C2.72184642 2.80432661 2.96034953 4.56384482 3.3125 8.4375 C3 12 3 12 1.75 15.125 C1.5025 16.07375 1.255 17.0225 1 18 C2.73938332 20.79543747 4.04202062 22.52101031 7 24 C7.33 24.99 7.66 25.98 8 27 C10.33010909 27.67784992 12.66359824 28.34416793 15 29 C17 32 17 32 16.8125 35.0625 C16 38 16 38 13 40 C10.26406336 40.34199208 8.6620158 40.37829474 6.25 39 C5 37 5 37 4.875 33.5 C4.29852857 27.03871611 -0.46433277 22.27920785 -5 18 C-7.38884691 16.84964265 -9.36397047 16.51686854 -12 16 C-14.9340629 13.29163424 -15.89792146 11.85065452 -16.375 7.875 C-16 5 -16 5 -14 2 C-13.34 2 -12.68 2 -12 2 C-12 1.34 -12 0.68 -12 0 C-7.83596847 -1.38801051 -4.22938512 -1.13413679 0 0 Z " fill="#015660" transform="translate(54,25)"/>
<path d="M0 0 C6.20335075 1.00535808 12.07150705 2.9043243 16.7432251 7.22973633 C20.90405437 13.09058292 19.57883663 22.22378155 19.31030273 29.03710938 C19.18723281 32.25699048 19.16677541 35.46548234 19.16210938 38.6875 C19.12837594 40.73448229 19.0888632 42.78137926 19.04296875 44.828125 C19.03315475 45.78857727 19.02334076 46.74902954 19.01322937 47.73858643 C18.71207954 54.23097205 18.71207954 54.23097205 16.59536743 56.51696777 C14.93481445 57.63574219 14.93481445 57.63574219 12 59 C11.505 57.515 11.505 57.515 11 56 C11.33 55.34 11.66 54.68 12 54 C11.34 53.67 10.68 53.34 10 53 C10 39.8 10 26.6 10 13 C12 12 12 12 14 12 C13.24074219 11.52949219 12.48148438 11.05898438 11.69921875 10.57421875 C10.70535156 9.95160156 9.71148437 9.32898437 8.6875 8.6875 C7.70136719 8.07261719 6.71523437 7.45773438 5.69921875 6.82421875 C3.48939553 5.33074922 1.68459131 4.05255665 0 2 C0 1.34 0 0.68 0 0 Z " fill="#005E66" transform="translate(69,16)"/>
<path d="M0 0 C0.66 0.33 1.32 0.66 2 1 C2 1.66 2 2.32 2 3 C3.0725 3.0825 4.145 3.165 5.25 3.25 C9.2738451 4.05476902 10.48169253 4.87729874 13 8 C12.67 8.66 12.34 9.32 12 10 C9.69 9.34 7.38 8.68 5 8 C4.731875 8.763125 4.46375 9.52625 4.1875 10.3125 C3 13 3 13 1.4453125 14.39453125 C-0.42442583 16.4714568 -0.29841018 17.62278807 -0.3125 20.375 C-0.59138172 23.94236201 -1.06513539 25.65100326 -3.8125 28 C-8.28463476 30.80604534 -8.28463476 30.80604534 -11 31 C-11.66 30.67 -12.32 30.34 -13 30 C-13 29.34 -13 28.68 -13 28 C-13.99 27.67 -14.98 27.34 -16 27 C-17.17664871 23.47005387 -17.19850603 20.70544587 -17 17 C-15 14 -15 14 -13.01171875 13.48046875 C-12.24472656 13.38378906 -11.47773438 13.28710938 -10.6875 13.1875 C-7.28310663 12.52416409 -5.32055373 11.86998002 -3 9.25 C-0.99230952 5.98750298 -0.27060193 3.78842702 0 0 Z " fill="#02353D" transform="translate(40,38)"/>
<path d="M0 0 C0.55010742 0.22502197 1.10021484 0.45004395 1.66699219 0.68188477 C0.67699219 1.01188477 -0.31300781 1.34188477 -1.33300781 1.68188477 C-4.04997224 2.98426558 -6.68628307 4.43064026 -9.33300781 5.86938477 C-10.05746094 6.24385742 -10.78191406 6.61833008 -11.52832031 7.00415039 C-16.23858015 9.58088848 -18.22860549 11.57321786 -20.33300781 16.68188477 C-24.43300781 19.68188477 -24.43300781 19.68188477 -27.33300781 19.68188477 C-27.33300781 20.67188477 -27.33300781 21.66188477 -27.33300781 22.68188477 C-26.01300781 22.68188477 -24.69300781 22.68188477 -23.33300781 22.68188477 C-23.00300781 22.02188477 -22.67300781 21.36188477 -22.33300781 20.68188477 C-21.01300781 21.01188477 -19.69300781 21.34188477 -18.33300781 21.68188477 C-20.11825431 22.87901494 -21.91141062 24.06435756 -23.70800781 25.24438477 C-25.20460938 26.23631836 -25.20460938 26.23631836 -26.73144531 27.24829102 C-27.58996094 27.72137695 -28.44847656 28.19446289 -29.33300781 28.68188477 C-31.84383895 27.4264692 -32.20426227 26.18124989 -33.33300781 23.68188477 C-32.34300781 23.35188477 -31.35300781 23.02188477 -30.33300781 22.68188477 C-29.59976985 20.66680118 -29.59976985 20.66680118 -29.33300781 18.68188477 C-30.03167969 19.04282227 -30.73035156 19.40375977 -31.45019531 19.77563477 C-32.36027344 20.23969727 -33.27035156 20.70375977 -34.20800781 21.18188477 C-35.11292969 21.64594727 -36.01785156 22.11000977 -36.95019531 22.58813477 C-39.33300781 23.68188477 -39.33300781 23.68188477 -41.33300781 23.68188477 C-41.44375169 30.12381321 -41.47627483 36.56277933 -41.45507812 43.00561523 C-41.4570218 45.19580855 -41.47670603 47.38606223 -41.51464844 49.57592773 C-41.56619467 52.73027065 -41.55338956 55.87889556 -41.52832031 59.03344727 C-41.55805939 60.0086734 -41.58779846 60.98389954 -41.61843872 61.98867798 C-41.55787564 64.88237749 -41.41379835 66.9911895 -40.33300781 69.68188477 C-37.27060945 72.32883112 -34.02973483 74.0654376 -30.33300781 75.68188477 C-31.32300781 76.17688477 -31.32300781 76.17688477 -32.33300781 76.68188477 C-36.19102917 75.32642608 -39.33146156 73.45773597 -42.33300781 70.68188477 C-43.70237846 66.96731242 -43.50802564 63.5139782 -43.30957031 59.59594727 C-43.29542084 58.53902679 -43.28127136 57.48210632 -43.26669312 56.39315796 C-43.21085375 53.02814411 -43.08544838 49.66987297 -42.95800781 46.30688477 C-42.90783296 44.02182493 -42.86220806 41.73666034 -42.82128906 39.45141602 C-42.71123118 33.85928458 -42.54407745 28.27106614 -42.33300781 22.68188477 C-41.54764648 22.23385498 -40.76228516 21.7858252 -39.953125 21.32421875 C-36.97825434 19.62675912 -34.00368233 17.92877834 -31.02929688 16.23046875 C-29.75337045 15.50207673 -28.47733272 14.77387966 -27.20117188 14.04589844 C-25.96141117 13.33864912 -24.72186824 12.63101792 -23.48254395 11.92300415 C-22.24729472 11.21790612 -21.0112088 10.51427184 -19.77429199 9.81210327 C-16.77755901 8.10572136 -13.80682854 6.37174442 -10.87402344 4.55737305 C-9.81376953 3.90881348 -8.75351562 3.26025391 -7.66113281 2.59204102 C-6.72688477 2.00688721 -5.79263672 1.4217334 -4.83007812 0.81884766 C-2.33300781 -0.31811523 -2.33300781 -0.31811523 0 0 Z " fill="#46A5AE" transform="translate(48.3330078125,1.318115234375)"/>
<path d="M0 0 C2.60057161 2.26501399 2.94731161 3.57849291 3.375 7 C2.96402572 10.28779421 2.32434503 11.67565497 0 14 C-0.66 14 -1.32 14 -2 14 C-2.33 14.66 -2.66 15.32 -3 16 C-7.25706948 15.19677934 -9.41200112 14.78399851 -12.0625 11.25 C-13.20895854 7.27561039 -12.8686489 5.65605219 -11 2 C-7.66707005 -1.82669735 -4.67701579 -1.27554976 0 0 Z " fill="#16EBF2" transform="translate(52,27)"/>
<path d="M0 0 C6.20335075 1.00535808 12.07150705 2.9043243 16.7432251 7.22973633 C20.90405437 13.09058292 19.57883663 22.22378155 19.31030273 29.03710938 C19.18723281 32.25699048 19.16677541 35.46548234 19.16210938 38.6875 C19.12837594 40.73448229 19.0888632 42.78137926 19.04296875 44.828125 C19.03315475 45.78857727 19.02334076 46.74902954 19.01322937 47.73858643 C18.71207954 54.23097205 18.71207954 54.23097205 16.59536743 56.51696777 C14.93481445 57.63574219 14.93481445 57.63574219 12 59 C11.505 57.515 11.505 57.515 11 56 C12.32 55.34 13.64 54.68 15 54 C15.33 40.14 15.66 26.28 16 12 C13.525 11.01 13.525 11.01 11 10 C9.60350717 9.22502321 8.22666523 8.413254 6.875 7.5625 C6.21242188 7.15128906 5.54984375 6.74007813 4.8671875 6.31640625 C3.00939784 5.00662567 1.4808565 3.72459996 0 2 C0 1.34 0 0.68 0 0 Z " fill="#003C43" transform="translate(69,16)"/>
<path d="M0 0 C0.33 0.66 0.66 1.32 1 2 C0.34 2 -0.32 2 -1 2 C-0.67 11.24 -0.34 20.48 0 30 C0.33 21.75 0.66 13.5 1 5 C1.99 5 2.98 5 4 5 C4.07413521 10.07198888 4.12859451 15.14366268 4.16479492 20.21606445 C4.17988516 21.94170627 4.20035975 23.66730972 4.22631836 25.39282227 C4.26269209 27.87265488 4.27972359 30.35198064 4.29296875 32.83203125 C4.31619453 33.98998955 4.31619453 33.98998955 4.33988953 35.17134094 C4.34158031 40.54769033 4.34158031 40.54769033 2.48168945 43.01049805 C1.99273193 43.33703369 1.50377441 43.66356934 1 44 C0.01 43.67 -0.98 43.34 -2 43 C-2 29.14 -2 15.28 -2 1 C-1.34 0.67 -0.68 0.34 0 0 Z " fill="#27919B" transform="translate(13,26)"/>
<path d="M0 0 C-1.45537568 0.83848804 -2.91440373 1.67063934 -4.375 2.5 C-5.59316406 3.19609375 -5.59316406 3.19609375 -6.8359375 3.90625 C-9 5 -9 5 -11 5 C-10.98374973 11.78152957 -10.92905337 18.56196188 -10.84741211 25.34301758 C-10.82419215 27.65056239 -10.80982707 29.95821378 -10.80444336 32.26586914 C-10.79518327 35.58026867 -10.75425551 38.89298246 -10.70703125 42.20703125 C-10.7109639 43.2414888 -10.71489655 44.27594635 -10.71894836 45.3417511 C-10.66473826 47.99323823 -10.58930872 50.41414282 -10 53 C-7.65631279 55.27739498 -7.65631279 55.27739498 -5 56 C-8 57 -8 57 -10.1875 56.0625 C-11.0846875 55.5365625 -11.0846875 55.5365625 -12 55 C-12 53.68 -12 52.36 -12 51 C-12.99 50.67 -13.98 50.34 -15 50 C-14.83773926 49.33178223 -14.67547852 48.66356445 -14.50830078 47.97509766 C-13.90318682 44.43334992 -13.85663244 40.97870244 -13.8671875 37.3984375 C-13.86623077 36.68015778 -13.86527405 35.96187805 -13.86428833 35.22183228 C-13.86361054 33.71071281 -13.86543674 32.19959037 -13.86962891 30.68847656 C-13.87499864 28.37558482 -13.8696623 26.06288587 -13.86328125 23.75 C-13.8639418 22.27864541 -13.86522247 20.80729093 -13.8671875 19.3359375 C-13.86516327 18.64527191 -13.86313904 17.95460632 -13.86105347 17.24301147 C-13.87587176 14.21406623 -14.03381815 11.89854555 -15 9 C-14.18245006 5.73995613 -13.486314 4.34534133 -10.72265625 2.3828125 C-9.84480469 1.96773437 -8.96695312 1.55265625 -8.0625 1.125 C-7.18722656 0.69445312 -6.31195313 0.26390625 -5.41015625 -0.1796875 C-3 -1 -3 -1 0 0 Z " fill="#01141E" transform="translate(17,19)"/>
<path d="M0 0 C0.66 0 1.32 0 2 0 C2.33 0.66 2.66 1.32 3 2 C5.02463255 2.65213292 5.02463255 2.65213292 7 3 C6.67 4.32 6.34 5.64 6 7 C9.40312738 5.94124926 12.01353231 4.99097846 15 3 C17.6875 2.875 17.6875 2.875 20 3 C18.706379 6.88086301 17.26604618 7.34295007 13.75 9.3125 C12.79609375 9.86550781 11.8421875 10.41851562 10.859375 10.98828125 C8 12 8 12 5.59765625 11.42578125 C4.74042969 10.95527344 3.88320313 10.48476562 3 10 C2.43812988 9.69457275 1.87625977 9.38914551 1.29736328 9.07446289 C-0.58860302 8.03381808 -2.45158221 6.95973684 -4.3125 5.875 C-4.95767578 5.50246094 -5.60285156 5.12992187 -6.26757812 4.74609375 C-7.84675945 3.83367787 -9.42361864 2.91724491 -11 2 C-11 1.67 -11 1.34 -11 1 C-7.66666667 1 -4.33333333 1 -1 1 C-0.67 0.67 -0.34 0.34 0 0 Z M0 3 C0.33 3.66 0.66 4.32 1 5 C1.66 5 2.32 5 3 5 C3 4.34 3 3.68 3 3 C2.01 3 1.02 3 0 3 Z " fill="#00353A" transform="translate(40,82)"/>
<path d="M0 0 C0.33 0 0.66 0 1 0 C1.33 10.23 1.66 20.46 2 31 C2.99 31.33 3.98 31.66 5 32 C4.91621094 31.30132812 4.83242188 30.60265625 4.74609375 29.8828125 C4.59333984 28.51769531 4.59333984 28.51769531 4.4375 27.125 C4.33308594 26.22007813 4.22867187 25.31515625 4.12109375 24.3828125 C4 22 4 22 5 20 C5.99 20.33 6.98 20.66 8 21 C7.67 21.66 7.34 22.32 7 23 C6.86642547 26.67329964 6.8328432 29.49852959 8 33 C8.66 33.33 9.32 33.66 10 34 C10 34.66 10 35.32 10 36 C10.598125 36.268125 11.19625 36.53625 11.8125 36.8125 C13.99847854 37.99917406 15.41332594 39.09599113 17 41 C17 41.66 17 42.32 17 43 C17.86625 43.185625 17.86625 43.185625 18.75 43.375 C21.02335767 44.00648824 22.9253529 44.88858191 25 46 C25 46.66 25 47.32 25 48 C20.40088173 46.31695672 16.2088281 44.05610999 11.9375 41.6875 C11.23044922 41.30916016 10.52339844 40.93082031 9.79492188 40.54101562 C9.10849609 40.16009766 8.42207031 39.77917969 7.71484375 39.38671875 C7.09730225 39.04858154 6.47976074 38.71044434 5.84350586 38.36206055 C3.28317569 36.47037971 1.71537427 34.69795823 0 32 C-0.45410156 28.49487305 -0.45410156 28.49487305 -0.390625 24.51171875 C-0.38496521 23.80852005 -0.37930542 23.10532135 -0.37347412 22.3808136 C-0.35119769 20.14899752 -0.30102373 17.91882539 -0.25 15.6875 C-0.22992343 14.16864309 -0.21167468 12.64976084 -0.1953125 11.13085938 C-0.15136357 7.42004455 -0.08239921 3.7101829 0 0 Z " fill="#023B41" transform="translate(17,32)"/>
<path d="M0 0 C1.43836751 0.11458693 2.87570966 0.24209116 4.3125 0.375 C5.51326172 0.47941406 5.51326172 0.47941406 6.73828125 0.5859375 C9 1 9 1 12 3 C12.328125 5.53125 12.328125 5.53125 12.25 8.5 C12.22679687 9.96953125 12.22679687 9.96953125 12.203125 11.46875 C12 14 12 14 11 16 C8.12890625 16.6328125 8.12890625 16.6328125 4.5625 17.125 C2.80099609 17.37636719 2.80099609 17.37636719 1.00390625 17.6328125 C-2 18 -2 18 -4 18 C-5.06723961 14.53777385 -5.10173486 11.35960734 -5.0625 7.75 C-5.04896484 6.13351563 -5.04896484 6.13351563 -5.03515625 4.484375 C-5.02355469 3.66453125 -5.01195312 2.8446875 -5 2 C-2 4 -2 4 -1.55859375 5.875 C-1.51863281 6.57625 -1.47867188 7.2775 -1.4375 8 C-1.28160458 11.40578304 -1.28160458 11.40578304 1 14 C4.59679066 13.67673447 4.59679066 13.67673447 8 13 C8.68493373 10.14221967 8.68493373 10.14221967 9 7 C6.42595029 3.13892543 4.38979741 3.05680308 0 2 C0 1.34 0 0.68 0 0 Z " fill="#01454E" transform="translate(61,50)"/>
<path d="M0 0 C4.16962009 0.16037 6.30624336 0.25428059 9.20996094 3.37548828 C11.95947424 7.88658078 11.49670516 12.74382612 11.390625 17.8671875 C11.38496521 18.90191193 11.37930542 19.93663635 11.37347412 21.00271606 C11.35115852 24.29395629 11.30096966 27.58409114 11.25 30.875 C11.22992884 33.1119634 11.21167915 35.34894393 11.1953125 37.5859375 C11.15130965 43.05766614 11.08444551 48.52875408 11 54 C8.525 54.495 8.525 54.495 6 55 C6.33 54.34 6.66 53.68 7 53 C7.66 53 8.32 53 9 53 C9.05985079 46.39736493 9.0575337 39.79683696 9.01220703 33.1940918 C9.00410135 30.9486552 9.01017261 28.7031205 9.03076172 26.45776367 C9.05791661 23.22704668 9.03391177 20.00011364 9 16.76953125 C9.0194165 15.76727005 9.03883301 14.76500885 9.05883789 13.7323761 C9.00097235 10.92918365 8.88527147 8.66258725 8 6 C5.56997072 3.70848206 2.99322932 2.41871037 0 1 C0 0.67 0 0.34 0 0 Z " fill="#00222B" transform="translate(80,19)"/>
<path d="M0 0 C6.38603223 0.4819647 6.38603223 0.4819647 9 2.6875 C10.37236288 5.86108915 9.99557514 7.72882454 9 11 C5.76746204 13.15502531 4.74849077 13.46856135 1 13 C-0.8125 12 -0.8125 12 -2 10 C-2.24667073 7.28125957 -2.13481122 4.74116148 -2 2 C-1.34 2 -0.68 2 0 2 C0 1.34 0 0.68 0 0 Z " fill="#0ABAC3" transform="translate(61,52)"/>
<path d="M0 0 C1.9375 1.0625 1.9375 1.0625 3 3 C2.875 6.5625 2.875 6.5625 2 10 C-1 12 -1 12 -4.0625 11.75 C-7 11 -7 11 -9 9 C-9.33015665 5.89652746 -9.50531294 3.84218824 -7.875 1.125 C-5.11909116 -0.52854531 -3.14924548 -0.39365568 0 0 Z " fill="#15B6BD" transform="translate(33,53)"/>
<path d="M0 0 C-0.00523682 1.21582764 -0.01047363 2.43165527 -0.01586914 3.68432617 C-0.03399624 8.20368715 -0.04546021 12.72304492 -0.05493164 17.24243164 C-0.05995422 19.19686423 -0.06677349 21.15129306 -0.07543945 23.10571289 C-0.08759589 25.91814093 -0.09324913 28.73051919 -0.09765625 31.54296875 C-0.10281754 32.41398727 -0.10797882 33.2850058 -0.11329651 34.18241882 C-0.19848451 40.17619478 -0.19848451 40.17619478 1 46 C1.99 46.66 2.98 47.32 4 48 C4 48.66 4 49.32 4 50 C4.66 50 5.32 50 6 50 C5.67 50.66 5.34 51.32 5 52 C1.93477896 50.71374649 -0.5937447 49.31421516 -3 47 C-4.1269564 43.48153168 -3.93557396 40.11345299 -3.78125 36.44921875 C-3.76993042 35.43527542 -3.75861084 34.42133209 -3.74694824 33.37666321 C-3.70223984 30.14500216 -3.60188599 26.91781442 -3.5 23.6875 C-3.45986592 21.4942048 -3.42336503 19.3008399 -3.390625 17.10742188 C-3.30252488 11.73676064 -3.16874792 6.3686998 -3 1 C-1 0 -1 0 0 0 Z " fill="#00383F" transform="translate(10,24)"/>
<path d="M0 0 C0.66 0 1.32 0 2 0 C2.32329201 4.97984471 2.55799957 9.95351535 2.71411133 14.94140625 C2.77919461 16.63389455 2.86770958 18.3256597 2.98071289 20.015625 C3.70824874 31.18214812 3.70824874 31.18214812 2 36 C-1.79715853 39.94689375 -6.02748422 41.83618892 -11 44 C-12.61437003 44.98984393 -14.21050216 46.01073908 -15.77734375 47.07421875 C-17.16366281 47.94594846 -18.55036788 48.81706466 -19.9375 49.6875 C-20.63939453 50.15349609 -21.34128906 50.61949219 -22.06445312 51.09960938 C-24.04907947 52.32306004 -25.76530466 53.33290077 -28 54 C-31.50390625 52.76953125 -31.50390625 52.76953125 -34 51 C-32 50 -32 50 -29.1875 50.1875 C-25.13714457 49.9492438 -24.12493187 48.52226644 -21 46 C-18.71459221 44.78111584 -16.39961603 43.61653752 -14.0625 42.5 C-6.54177404 39.02055285 -6.54177404 39.02055285 0 34 C0.08847743 31.47905924 0.11527301 28.98569107 0.09765625 26.46484375 C0.0962413 25.71159317 0.09482635 24.95834259 0.09336853 24.18226624 C0.08775376 21.7673044 0.07519883 19.35243399 0.0625 16.9375 C0.0574869 15.30403779 0.05292366 13.67057414 0.04882812 12.03710938 C0.03777954 8.02470415 0.02050506 4.01236759 0 0 Z " fill="#004A51" transform="translate(76,30)"/>
<path d="M0 0 C-0.61875 0.2475 -1.2375 0.495 -1.875 0.75 C-4.35068687 2.20628639 -4.95125002 3.37812506 -6 6 C-6.66 6 -7.32 6 -8 6 C-7.67 6.66 -7.34 7.32 -7 8 C-5.88625 7.319375 -4.7725 6.63875 -3.625 5.9375 C-1.7265625 4.77734375 -1.7265625 4.77734375 0 4 C0.66 4.33 1.32 4.66 2 5 C-1.58202182 7.12721665 -5.16584135 9.251386 -8.75 11.375 C-9.76578125 11.97828125 -10.7815625 12.5815625 -11.828125 13.203125 C-12.8078125 13.78320312 -13.7875 14.36328125 -14.796875 14.9609375 C-15.69760742 15.49509277 -16.59833984 16.02924805 -17.52636719 16.57958984 C-18.34266602 17.0483252 -19.15896484 17.51706055 -20 18 C-21.07121094 18.62358398 -21.07121094 18.62358398 -22.1640625 19.25976562 C-23.07285156 19.62618164 -23.07285156 19.62618164 -24 20 C-26.578125 18.8828125 -26.578125 18.8828125 -29.25 17.125 C-30.14203125 16.55007812 -31.0340625 15.97515625 -31.953125 15.3828125 C-32.62859375 14.92648438 -33.3040625 14.47015625 -34 14 C-33.34 13.67 -32.68 13.34 -32 13 C-30.9275 13.680625 -29.855 14.36125 -28.75 15.0625 C-25.93153229 16.74542803 -25.38153347 17.06358891 -22 16.5 C-15.57464851 13.75809372 -15.57464851 13.75809372 -11 9 C-11.99 9 -12.98 9 -14 9 C-13.08259025 5.33036099 -11.85358306 3.60779821 -8.6875 1.6875 C-5.69180869 0.12698298 -3.41662096 -0.41413587 0 0 Z " fill="#3B9DA5" transform="translate(71,76)"/>
<path d="M0 0 C5.55523673 1.64131994 5.55523673 1.64131994 7.9375 3.5625 C10.80126056 5.55845433 13.58195999 5.55692074 17 6 C19 8 19 8 19.22705078 11.99072266 C19.22673337 13.71520169 19.21539124 15.43970033 19.1953125 17.1640625 C19.1924826 18.07127045 19.18965271 18.97847839 19.18673706 19.91317749 C19.17552153 22.81725123 19.15041463 25.72101912 19.125 28.625 C19.11497197 30.59114139 19.10584581 32.5572876 19.09765625 34.5234375 C19.07557772 39.34907659 19.04103865 44.1744864 19 49 C18.67 49 18.34 49 18 49 C18 35.8 18 22.6 18 9 C15.69 9.33 13.38 9.66 11 10 C8.1640625 9.1796875 8.1640625 9.1796875 5.625 7.875 C4.77164063 7.45992187 3.91828125 7.04484375 3.0390625 6.6171875 C1 5 1 5 0.2109375 2.3203125 C0.14132813 1.55460937 0.07171875 0.78890625 0 0 Z " fill="#37ACB4" transform="translate(65,20)"/>
<path d="M0 0 C0.66 0.33 1.32 0.66 2 1 C0.7934375 1.37125 0.7934375 1.37125 -0.4375 1.75 C-1.283125 2.1625 -2.12875 2.575 -3 3 C-3.67156616 4.93618425 -3.67156616 4.93618425 -4 7 C-5.1875 8.75 -5.1875 8.75 -7 10 C-8.36125 9.938125 -8.36125 9.938125 -9.75 9.875 C-13.77794225 10.02992086 -15.17930965 11.33668442 -18.25390625 13.75390625 C-20.65670208 15.46865316 -23.16924612 16.24052945 -26 17 C-26 17.99 -26 18.98 -26 20 C-29.4019487 22.09350689 -32.05272412 22.17942163 -36 22 C-33.45653352 19.13615247 -30.57845158 17.45704146 -27.265625 15.56640625 C-26.13382813 14.91736328 -25.00203125 14.26832031 -23.8359375 13.59960938 C-22.6406886 12.92046098 -21.44537561 12.24142535 -20.25 11.5625 C-19.07006099 10.88780945 -17.89037093 10.21268335 -16.7109375 9.53710938 C-14.46270629 8.25113132 -12.21215373 6.96920067 -9.95898438 5.69189453 C-8.18924129 4.67998698 -6.42710491 3.65430825 -4.68164062 2.60107422 C-3.15274592 1.67938044 -1.58145435 0.82827567 0 0 Z " fill="#002229" transform="translate(84,74)"/>
<path d="M0 0 C4.08865634 1.07596219 7.63887916 2.76222955 11.3125 4.8125 C12.17488281 5.29332031 13.03726562 5.77414063 13.92578125 6.26953125 C16 8 16 8 16.79296875 10.69921875 C16.89544922 11.83810547 16.89544922 11.83810547 17 13 C14.36 12.01 11.72 11.02 9 10 C9 9.01 9 8.02 9 7 C8.4225 7.350625 7.845 7.70125 7.25 8.0625 C5 9 5 9 2.8125 8.8125 C2.214375 8.544375 1.61625 8.27625 1 8 C0.67 7.01 0.34 6.02 0 5 C-0.99 4.67 -1.98 4.34 -3 4 C-2.67 3.34 -2.34 2.68 -2 2 C-1.34 2 -0.68 2 0 2 C0 1.34 0 0.68 0 0 Z " fill="#065E64" transform="translate(17,67)"/>
<path d="M0 0 C2.5 1 2.5 1 4.5 3 C3.51 3.66 2.52 4.32 1.5 5 C1.5 5.66 1.5 6.32 1.5 7 C-0.046875 7.433125 -0.046875 7.433125 -1.625 7.875 C-4.95007997 8.82308798 -8.22751453 9.88256594 -11.5 11 C-11.5 10.01 -11.5 9.02 -11.5 8 C-13.15 8.33 -14.8 8.66 -16.5 9 C-12.21337226 4.36429834 -6.42999076 0 0 0 Z " fill="#197F87" transform="translate(48.5,7)"/>
<path d="M0 0 C0.66 0.33 1.32 0.66 2 1 C2 1.66 2 2.32 2 3 C2.99 3 3.98 3 5 3 C3.125 7.75 3.125 7.75 2 10 C1.34 10 0.68 10 0 10 C-0.433125 10.928125 -0.433125 10.928125 -0.875 11.875 C-2 14 -2 14 -4 16 C-6.6015625 16.1953125 -6.6015625 16.1953125 -9.625 16.125 C-11.12933594 16.09792969 -11.12933594 16.09792969 -12.6640625 16.0703125 C-13.43492188 16.04710938 -14.20578125 16.02390625 -15 16 C-15.33 18.64 -15.66 21.28 -16 24 C-16.33 24 -16.66 24 -17 24 C-17.25 17.375 -17.25 17.375 -15 14 C-13.01171875 13.48046875 -13.01171875 13.48046875 -10.6875 13.1875 C-7.28310663 12.52416409 -5.32055373 11.86998002 -3 9.25 C-0.99230952 5.98750298 -0.27060193 3.78842702 0 0 Z " fill="#22737A" transform="translate(40,38)"/>
<path d="M0 0 C3.875 1.75 3.875 1.75 5 4 C5.2965955 7.41084821 5.35902137 9.37987218 3.625 12.375 C3.08875 12.91125 2.5525 13.4475 2 14 C1.34 14 0.68 14 0 14 C-0.33 14.66 -0.66 15.32 -1 16 C-5.25706948 15.19677934 -7.41200112 14.78399851 -10.0625 11.25 C-11.19055041 7.33942523 -10.7669237 5.61798661 -9 2 C-8.34 1.67 -7.68 1.34 -7 1 C-7 3.64 -7 6.28 -7 9 C-4.67145537 10.19838209 -4.67145537 10.19838209 -2 11 C-1.01 10.34 -0.02 9.68 1 9 C1.66 9 2.32 9 3 9 C2.67 6.69 2.34 4.38 2 2 C1.34 2 0.68 2 0 2 C0 1.34 0 0.68 0 0 Z " fill="#24E1E5" transform="translate(50,27)"/>
<path d="M0 0 C-1.86470351 3.54293666 -3.09364418 5.77228817 -7 7 C-10.25 7.125 -10.25 7.125 -13 7 C-13.33 7.99 -13.66 8.98 -14 10 C-15.32 9.67 -16.64 9.34 -18 9 C-18 8.01 -18 7.02 -18 6 C-4.29015544 -2.14507772 -4.29015544 -2.14507772 0 0 Z " fill="#16757C" transform="translate(39,15)"/>
<path d="M0 0 C0.99 0.33 1.98 0.66 3 1 C2.34 1.66 1.68 2.32 1 3 C1.99 4.485 1.99 4.485 3 6 C2.01 6.66 1.02 7.32 0 8 C-0.51012565 10.61196291 -0.51012565 10.61196291 -0.51171875 13.6640625 C-0.54716797 14.78554688 -0.58261719 15.90703125 -0.61914062 17.0625 C-0.64169922 18.238125 -0.66425781 19.41375 -0.6875 20.625 C-0.72166016 21.80835937 -0.75582031 22.99171875 -0.79101562 24.2109375 C-0.87370575 27.1405306 -0.94278714 30.0698164 -1 33 C-1.99 33.495 -1.99 33.495 -3 34 C-3 24.43 -3 14.86 -3 5 C-2.34 5 -1.68 5 -1 5 C-1.33 4.01 -1.66 3.02 -2 2 C-1.34 1.34 -0.68 0.68 0 0 Z " fill="#005B62" transform="translate(15,23)"/>
<path d="M0 0 C0 0.66 0 1.32 0 2 C-1.98 2 -3.96 2 -6 2 C-6 2.66 -6 3.32 -6 4 C-9.99022269 8.24491775 -14.79730466 11.44965914 -20 14 C-20.66 13.67 -21.32 13.34 -22 13 C-19.58575982 7.69998836 -15.91405293 5.7831354 -11 3.125 C-10.27554688 2.70992188 -9.55109375 2.29484375 -8.8046875 1.8671875 C-3.38985567 -1.12995189 -3.38985567 -1.12995189 0 0 Z " fill="#003A40" transform="translate(50,3)"/>
<path d="M0 0 C0.33 0 0.66 0 1 0 C4.23506392 11.7271067 4.23506392 11.7271067 1.97265625 15.890625 C-0.17843926 18.82231196 -1.83292682 20.6773944 -5.40234375 21.6640625 C-7.62235013 21.90956084 -9.76790107 22.03472154 -12 22 C-11.67 20.68 -11.34 19.36 -11 18 C-8.69 18.33 -6.38 18.66 -4 19 C-4 18.34 -4 17.68 -4 17 C-3.34 17 -2.68 17 -2 17 C-1.67 15.02 -1.34 13.04 -1 11 C-0.34 11 0.32 11 1 11 C0.67 10.34 0.34 9.68 0 9 C-0.06950541 7.45976004 -0.08452357 5.91665012 -0.0625 4.375 C-0.05347656 3.55773438 -0.04445313 2.74046875 -0.03515625 1.8984375 C-0.02355469 1.27195312 -0.01195312 0.64546875 0 0 Z " fill="#02373F" transform="translate(37,30)"/>
<path d="M0 0 C0.2475 0.556875 0.495 1.11375 0.75 1.6875 C2.56239774 5.04043581 4.53114492 8.26557246 8 10 C8 11.65 8 13.3 8 15 C5.17288273 14.63722831 4.10634802 14.10850956 2.078125 12.0390625 C1.47484375 11.24242187 0.8715625 10.44578125 0.25 9.625 C-0.36359375 8.83351563 -0.9771875 8.04203125 -1.609375 7.2265625 C-3 5 -3 5 -3 2 C-2.01 1.34 -1.02 0.68 0 0 Z " fill="#227C82" transform="translate(53,39)"/>
<path d="M0 0 C0.33 0 0.66 0 1 0 C1.00142502 0.58215775 1.00285004 1.16431549 1.00431824 1.76411438 C1.02398182 7.81514804 1.0781826 13.86516838 1.15258789 19.91577148 C1.17580667 22.17481215 1.19017265 24.43396166 1.19555664 26.69311523 C1.20481765 29.93803039 1.245747 33.18122428 1.29296875 36.42578125 C1.2890361 37.43836502 1.28510345 38.45094879 1.28105164 39.49421692 C1.3353899 42.09658934 1.41141173 44.46434086 2 47 C4.34740905 49.26101292 4.34740905 49.26101292 7 50 C5.515 50.495 5.515 50.495 4 51 C2.68 50.34 1.36 49.68 0 49 C0 32.83 0 16.66 0 0 Z " fill="#00232B" transform="translate(5,25)"/>
<path d="M0 0 C6.38603223 0.4819647 6.38603223 0.4819647 9 2.6875 C10.37236288 5.86108915 9.99557514 7.72882454 9 11 C5.76746204 13.15502531 4.74849077 13.46856135 1 13 C-0.8125 12 -0.8125 12 -2 10 C-2.24667073 7.28125957 -2.13481122 4.74116148 -2 2 C-1.34 2 -0.68 2 0 2 C0 1.34 0 0.68 0 0 Z M-1 4 C-0.71269945 6.33944736 -0.38063221 8.6739143 0 11 C2.31 11 4.62 11 7 11 C7.33 8.69 7.66 6.38 8 4 C5.43827949 2.71913974 1.22054965 1.77945035 -1 4 Z " fill="#20AFB5" transform="translate(61,52)"/>
<path d="M0 0 C-1.39123319 4.17369956 -4.28430926 5.22246104 -7.9375 7.25 C-8.58396484 7.62640625 -9.23042969 8.0028125 -9.89648438 8.390625 C-11.56003673 9.33036797 -13.27751916 10.1732092 -15 11 C-15.66 10.67 -16.32 10.34 -17 10 C-12.32918885 3.99467138 -8.04171127 0 0 0 Z " fill="#00353D" transform="translate(79,74)"/>
<path d="M0 0 C-0.3125 3.375 -0.3125 3.375 -1 7 C-4.4352048 9.29013653 -5.985331 9.17842973 -10 9 C-8.9789114 5.32408105 -8.08564783 4.0660202 -5 1.6875 C-2 0 -2 0 0 0 Z " fill="#21838B" transform="translate(58,78)"/>
<path d="M0 0 C1.45945288 0.08708669 2.91765868 0.19526907 4.375 0.3125 C5.59316406 0.39951172 5.59316406 0.39951172 6.8359375 0.48828125 C9 1 9 1 11 4 C11.66115702 10.94214876 11.66115702 10.94214876 9.4375 14.5 C6.17971981 16.50478781 3.75217167 16.28862859 0 16 C0.33 15.34 0.66 14.68 1 14 C3.32156597 13.59270772 5.6568787 13.25561323 8 13 C8.68493373 10.14221967 8.68493373 10.14221967 9 7 C6.42595029 3.13892543 4.38979741 3.05680308 0 2 C0 1.34 0 0.68 0 0 Z " fill="#005159" transform="translate(61,50)"/>
<path d="M0 0 C1.32 0.33 2.64 0.66 4 1 C-7.88 7.93 -7.88 7.93 -20 15 C-20.33 14.01 -20.66 13.02 -21 12 C-20.14921875 11.57847656 -19.2984375 11.15695312 -18.421875 10.72265625 C-15.00685669 9.00345182 -11.62340841 7.23691025 -8.25 5.4375 C-7.12078125 4.83808594 -5.9915625 4.23867187 -4.828125 3.62109375 C-1.97518951 2.14974059 -1.97518951 2.14974059 0 0 Z " fill="#002630" transform="translate(38,3)"/>
<path d="M0 0 C1.50034276 3.00068552 1.05449224 5.7137506 0.9921875 9.0546875 C0.97466715 10.48827412 0.95775926 11.92186834 0.94140625 13.35546875 C0.91046786 15.61593577 0.87497899 17.87602429 0.82861328 20.13623047 C0.78619974 22.31743048 0.76281122 24.49818711 0.7421875 26.6796875 C0.7201123 27.98663574 0.69803711 29.29358398 0.67529297 30.64013672 C1.0147399 34.15251915 1.59155827 35.49645692 4 38 C2.35 37.34 0.7 36.68 -1 36 C-1.02465098 31.03377651 -1.04283649 26.06758834 -1.05493164 21.10131836 C-1.0599719 19.41055684 -1.06680405 17.71979971 -1.07543945 16.02905273 C-1.08751857 13.60399293 -1.09323123 11.17899056 -1.09765625 8.75390625 C-1.10281754 7.99348526 -1.10797882 7.23306427 -1.11329651 6.44960022 C-1.11349238 4.6326743 -1.06197277 2.81586873 -1 1 C-0.67 0.67 -0.34 0.34 0 0 Z M-2 37 C-1.34 37 -0.68 37 0 37 C0 37.66 0 38.32 0 39 C-0.99 39.33 -1.98 39.66 -3 40 C-2.67 39.01 -2.34 38.02 -2 37 Z " fill="#005157" transform="translate(17,30)"/>
<path d="M0 0 C0.33 0.66 0.66 1.32 1 2 C2.32 2 3.64 2 5 2 C5.33 1.34 5.66 0.68 6 0 C7.32 0.33 8.64 0.66 10 1 C8.21475351 2.19713017 6.4215972 3.38247279 4.625 4.5625 C3.12839844 5.55443359 3.12839844 5.55443359 1.6015625 6.56640625 C0.74304688 7.03949219 -0.11546875 7.51257813 -1 8 C-3.51083114 6.74458443 -3.87125446 5.49936512 -5 3 C-3.35 2.01 -1.7 1.02 0 0 Z " fill="#21838C" transform="translate(20,22)"/>
<path d="M0 0 C0.66 0.33 1.32 0.66 2 1 C2.18451025 11.55808656 2.18451025 11.55808656 1 16 C1.99 16 2.98 16 4 16 C4.99 17.98 5.98 19.96 7 22 C2.62872838 20.66433367 0.27894323 19.01094009 -2 15 C-1.25 12.25 -1.25 12.25 0 9 C0.18739127 5.99187694 0.1204107 3.01026751 0 0 Z " fill="#013941" transform="translate(56,28)"/>
<path d="M0 0 C1.98498051 0.92512666 3.96286018 1.86550237 5.9375 2.8125 C7.03964844 3.33457031 8.14179687 3.85664063 9.27734375 4.39453125 C12 6 12 6 13 9 C7.58509109 8.56680729 4.24207578 7.43406135 0 4 C-0.33 3.01 -0.66 2.02 -1 1 C-0.67 0.67 -0.34 0.34 0 0 Z " fill="#003F47" transform="translate(55,7)"/>
<path d="M0 0 C3 1 3 1 4 3 C4.99 3.33 5.98 3.66 7 4 C7 4.66 7 5.32 7 6 C7.99 5.67 8.98 5.34 10 5 C10.33 5.99 10.66 6.98 11 8 C6.16039934 8.34568576 3.08931064 7.66280693 -1 5 C-1.875 2.8125 -1.875 2.8125 -2 1 C-1.34 0.67 -0.68 0.34 0 0 Z " fill="#08616B" transform="translate(51,10)"/>
<path d="M0 0 C5.05255964 0.63156995 9.29593201 2.13459373 14 4 C14 4.33 14 4.66 14 5 C12.06318839 5.08107583 10.1254066 5.13922475 8.1875 5.1875 C7.10855469 5.22230469 6.02960937 5.25710937 4.91796875 5.29296875 C2 5 2 5 0.11328125 3.48828125 C-0.43779297 2.75158203 -0.43779297 2.75158203 -1 2 C-0.67 1.34 -0.34 0.68 0 0 Z " fill="#011119" transform="translate(33,91)"/>
<path d="M0 0 C1.65 0 3.3 0 5 0 C5 0.99 5 1.98 5 3 C5.68707031 3.12117188 6.37414062 3.24234375 7.08203125 3.3671875 C7.98308594 3.53476563 8.88414063 3.70234375 9.8125 3.875 C10.70582031 4.03742188 11.59914063 4.19984375 12.51953125 4.3671875 C15 5 15 5 18 7 C18 7.66 18 8.32 18 9 C13.6635069 9.37169941 11.60972647 8.31392722 8 6 C7.319375 5.87625 6.63875 5.7525 5.9375 5.625 C2.95886432 4.66414978 1.77593156 2.47361896 0 0 Z " fill="#15737C" transform="translate(21,74)"/>
<path d="M0 0 C0.66 0 1.32 0 2 0 C2.33 0.66 2.66 1.32 3 2 C5.02463255 2.65213292 5.02463255 2.65213292 7 3 C6.67 4.65 6.34 6.3 6 8 C0.47371099 6.80805531 -2.17819158 5.4008703 -6 1 C-5.38125 1.20625 -4.7625 1.4125 -4.125 1.625 C-3.073125 1.810625 -3.073125 1.810625 -2 2 C-1.34 1.34 -0.68 0.68 0 0 Z M0 3 C0.33 3.66 0.66 4.32 1 5 C1.66 5 2.32 5 3 5 C3 4.34 3 3.68 3 3 C2.01 3 1.02 3 0 3 Z " fill="#035B62" transform="translate(40,82)"/>
<path d="M0 0 C4.50802601 1.25805377 7.4912812 2.90407165 11 6 C8.03 5.505 8.03 5.505 5 5 C5 4.34 5 3.68 5 3 C4.01 3.495 4.01 3.495 3 4 C3 4.99 3 5.98 3 7 C1.02 6.01 -0.96 5.02 -3 4 C-2.67 3.34 -2.34 2.68 -2 2 C-1.34 2 -0.68 2 0 2 C0 1.34 0 0.68 0 0 Z " fill="#22878B" transform="translate(17,67)"/>
<path d="M0 0 C6.75 1.75 6.75 1.75 9 4 C11.32671865 5.01529541 13.6603447 6.01488198 16 7 C16.99 7.66 17.98 8.32 19 9 C19 9.66 19 10.32 19 11 C14.60616294 9.40376856 10.71004193 7.21975667 6.6875 4.875 C6.04232422 4.50246094 5.39714844 4.12992188 4.73242188 3.74609375 C3.15324055 2.83367787 1.57638136 1.91724491 0 1 C0 0.67 0 0.34 0 0 Z " fill="#00222E" transform="translate(61,8)"/>
<path d="M0 0 C-1 3 -1 3 -3.125 4.6875 C-6.60081696 6.274286 -9.22092373 6.2222986 -13 6 C-9.24201894 1.84644198 -5.71575712 -0.48992204 0 0 Z " fill="#00474E" transform="translate(60,85)"/>
<path d="M0 0 C3.34373475 0.55728913 6.03312999 1.35173889 9 3 C9 3.66 9 4.32 9 5 C9.86625 5.185625 9.86625 5.185625 10.75 5.375 C13.02335767 6.00648824 14.9253529 6.88858191 17 8 C17 8.66 17 9.32 17 10 C12.97683781 8.51463956 9.38707358 6.60123107 5.6875 4.4375 C4.61886719 3.81746094 3.55023437 3.19742188 2.44921875 2.55859375 C1.64097656 2.04425781 0.83273438 1.52992187 0 1 C0 0.67 0 0.34 0 0 Z " fill="#004750" transform="translate(25,70)"/>
<path d="M0 0 C0.8971875 0.309375 0.8971875 0.309375 1.8125 0.625 C1.8125 1.285 1.8125 1.945 1.8125 2.625 C2.4725 2.955 3.1325 3.285 3.8125 3.625 C1.4375 5.1875 1.4375 5.1875 -1.1875 6.625 C-1.8475 6.295 -2.5075 5.965 -3.1875 5.625 C-3.1875 4.965 -3.1875 4.305 -3.1875 3.625 C-4.8375 3.955 -6.4875 4.285 -8.1875 4.625 C-3.2421875 -0.55580357 -3.2421875 -0.55580357 0 0 Z " fill="#248990" transform="translate(40.1875,11.375)"/>
<path d="M0 0 C3.01217112 0.64449607 5.51655836 1.65022182 8.25 3.0625 C8.95640625 3.42472656 9.6628125 3.78695313 10.390625 4.16015625 C10.92171875 4.43730469 11.4528125 4.71445312 12 5 C11.67 5.66 11.34 6.32 11 7 C7.9375 7.625 7.9375 7.625 5 8 C4.67 6.35 4.34 4.7 4 3 C3.34 3 2.68 3 2 3 C2 2.34 2 1.68 2 1 C1.34 0.67 0.68 0.34 0 0 Z " fill="#042F38" transform="translate(60,23)"/>
<path d="M0 0 C0 0.99 0 1.98 0 3 C-3.3 3 -6.6 3 -10 3 C-10.33 5.64 -10.66 8.28 -11 11 C-11.33 11 -11.66 11 -12 11 C-12.25 4.375 -12.25 4.375 -10 1 C-6.52674819 -0.1577506 -3.63932552 -0.06866652 0 0 Z " fill="#046066" transform="translate(35,51)"/>
<path d="M0 0 C0.66 0.33 1.32 0.66 2 1 C-1.21644769 4.58404171 -3.15980537 6.49050583 -8 7 C-8.99 7.33 -9.98 7.66 -11 8 C-11 7.34 -11 6.68 -11 6 C-9.35546875 4.74609375 -9.35546875 4.74609375 -7.1875 3.4375 C-6.47980469 3.00308594 -5.77210937 2.56867187 -5.04296875 2.12109375 C-3 1 -3 1 0 0 Z " fill="#01333A" transform="translate(36,21)"/>
<path d="M0 0 C5.78897798 -0.48241483 10.2283424 0.52018141 15 4 C15.33 4.99 15.66 5.98 16 7 C13.26786866 5.98520836 11.01182671 5.00840319 8.625 3.3125 C5.09613085 1.54806543 2.77772616 2.18519632 -1 3 C-0.67 2.01 -0.34 1.02 0 0 Z " fill="#002730" transform="translate(43,0)"/>
<path d="M0 0 C4.43090471 1.20842856 6.98112756 2.51668565 10 6 C7.03 5.67 4.06 5.34 1 5 C0.67 3.35 0.34 1.7 0 0 Z " fill="#0C676B" transform="translate(65,20)"/>
<path d="M0 0 C0 0.66 0 1.32 0 2 C-1.98600337 3.3540932 -3.98817543 4.68457624 -6 6 C-7.36886951 7.29682374 -8.7169291 8.61823134 -10 10 C-10.66 9.67 -11.32 9.34 -12 9 C-5 0 -5 0 0 0 Z " fill="#00424B" transform="translate(74,75)"/>
<path d="M0 0 C0.33 0.99 0.66 1.98 1 3 C-0.5625 4.5625 -0.5625 4.5625 -3 6 C-6.75 5.6875 -6.75 5.6875 -10 5 C-10.33 3.68 -10.66 2.36 -11 1 C-10.46375 1.350625 -9.9275 1.70125 -9.375 2.0625 C-6.22486274 3.30597523 -4.23097953 2.86159454 -1 2 C-0.67 1.34 -0.34 0.68 0 0 Z " fill="#00535C" transform="translate(35,61)"/>
<path d="M0 0 C0.66 0.33 1.32 0.66 2 1 C1.525625 1.495 1.05125 1.99 0.5625 2.5 C-1.62167907 5.99468651 -1.65913911 8.90966936 -2 13 C-2.66 13 -3.32 13 -4 13 C-5.56659619 6.97463002 -5.56659619 6.97463002 -3.953125 4.19921875 C-2.70838944 2.73420696 -1.35934288 1.35934288 0 0 Z " fill="#004850" transform="translate(40,48)"/>
<path d="M0 0 C3.25 0.125 3.25 0.125 7 1 C9.4375 4.0625 9.4375 4.0625 11 7 C10.67 7.66 10.34 8.32 10 9 C9.278125 8.236875 8.55625 7.47375 7.8125 6.6875 C5.30051382 4.28715765 2.99124519 2.70928296 0 1 C0 0.67 0 0.34 0 0 Z " fill="#001F28" transform="translate(80,19)"/>
<path d="M0 0 C0.66 0.33 1.32 0.66 2 1 C0.515 3.475 0.515 3.475 -1 6 C-2.32 5.67 -3.64 5.34 -5 5 C-5 4.01 -5 3.02 -5 2 C-2.625 0.9375 -2.625 0.9375 0 0 Z " fill="#086267" transform="translate(37,14)"/>
<path d="M0 0 C0.33 0 0.66 0 1 0 C3.56133056 9.28482328 3.56133056 9.28482328 3 14 C2.01 14.66 1.02 15.32 0 16 C0.2784375 14.824375 0.2784375 14.824375 0.5625 13.625 C1.25962266 11.02910225 1.25962266 11.02910225 0 9 C-0.06950541 7.45976004 -0.08452357 5.91665012 -0.0625 4.375 C-0.05347656 3.55773438 -0.04445312 2.74046875 -0.03515625 1.8984375 C-0.02355469 1.27195312 -0.01195312 0.64546875 0 0 Z " fill="#024149" transform="translate(37,30)"/>
<path d="M0 0 C0.66 0.33 1.32 0.66 2 1 C0.7934375 1.37125 0.7934375 1.37125 -0.4375 1.75 C-1.283125 2.1625 -2.12875 2.575 -3 3 C-3.67156616 4.93618425 -3.67156616 4.93618425 -4 7 C-5.4375 8.75 -5.4375 8.75 -7 10 C-7.66 10 -8.32 10 -9 10 C-7.24277009 5.68679932 -4.1937832 2.0968916 0 0 Z " fill="#001A22" transform="translate(84,74)"/>
<path d="M0 0 C0.99 0.33 1.98 0.66 3 1 C2.67 1.66 2.34 2.32 2 3 C1.93049459 4.54023996 1.91547643 6.08334988 1.9375 7.625 C1.94652344 8.44226562 1.95554687 9.25953125 1.96484375 10.1015625 C1.97644531 10.72804688 1.98804688 11.35453125 2 12 C1.34 12 0.68 12 0 12 C-0.19477739 10.37585622 -0.38059458 8.75063577 -0.5625 7.125 C-0.66691406 6.22007813 -0.77132813 5.31515625 -0.87890625 4.3828125 C-1 2 -1 2 0 0 Z " fill="#013D45" transform="translate(22,52)"/>
<path d="M0 0 C2.0625 0.4375 2.0625 0.4375 4 1 C4 2.65 4 4.3 4 6 C2.68 5.67 1.36 5.34 0 5 C-0.5625 3.0625 -0.5625 3.0625 -1 1 C-0.67 0.67 -0.34 0.34 0 0 Z " fill="#176A70" transform="translate(57,48)"/>
<path d="M0 0 C1.875 0.25 1.875 0.25 4 1 C4.66666667 2.33333333 5.33333333 3.66666667 6 5 C8.53188648 6.75322937 8.53188648 6.75322937 11 8 C10.01 8.495 10.01 8.495 9 9 C5.7655316 7.54448922 4.29327884 6.6483006 2.8125 3.375 C2.544375 2.59125 2.27625 1.8075 2 1 C1.34 0.67 0.68 0.34 0 0 Z " fill="#2B7F87" transform="translate(14,73)"/>
<path d="M0 0 C-0.33 0.99 -0.66 1.98 -1 3 C-3.31 3 -5.62 3 -8 3 C-8 2.01 -8 1.02 -8 0 C-5.13822943 -1.43088528 -3.06624227 -0.59991697 0 0 Z " fill="#0ABAC0" transform="translate(33,60)"/>
<path d="M0 0 C3.68754757 0.49831724 5.60490662 1.10067643 8 4 C7.67 4.66 7.34 5.32 7 6 C6.34 5.34 5.68 4.68 5 4 C3.01178687 3.60235737 1.01055661 3.26224651 -1 3 C-0.67 2.01 -0.34 1.02 0 0 Z " fill="#004E57" transform="translate(45,42)"/>
<path d="M0 0 C0.99 0.495 0.99 0.495 2 1 C2 1.66 2 2.32 2 3 C2.99 3 3.98 3 5 3 C4.34 4.65 3.68 6.3 3 8 C2.67 7.34 2.34 6.68 2 6 C1.34 6 0.68 6 0 6 C0 4.02 0 2.04 0 0 Z " fill="#167C84" transform="translate(40,38)"/>
<path d="M0 0 C-1.26418246 0.69965443 -2.53665402 1.38434763 -3.8125 2.0625 C-4.52019531 2.44535156 -5.22789063 2.82820313 -5.95703125 3.22265625 C-8 4 -8 4 -11 3 C-7.56065558 -0.95524608 -4.91824601 -1.35534128 0 0 Z " fill="#014147" transform="translate(49,16)"/>
<path d="M0 0 C-1.6188996 1.03048037 -3.24532489 2.04914678 -4.875 3.0625 C-5.77992187 3.63097656 -6.68484375 4.19945312 -7.6171875 4.78515625 C-8.40351563 5.18605469 -9.18984375 5.58695313 -10 6 C-10.66 5.67 -11.32 5.34 -12 5 C-8.44416617 1.04907352 -5.38741645 -1.79580548 0 0 Z " fill="#005159" transform="translate(40,11)"/>
<path d="M0 0 C0.33 0 0.66 0 1 0 C1.04898438 0.74765625 1.09796875 1.4953125 1.1484375 2.265625 C1.22320312 3.25046875 1.29796875 4.2353125 1.375 5.25 C1.44460937 6.22453125 1.51421875 7.1990625 1.5859375 8.203125 C1.98465249 10.89633189 2.63507063 12.66963279 4 15 C3.01 15.33 2.02 15.66 1 16 C-0.06723961 12.53777385 -0.10173486 9.35960734 -0.0625 5.75 C-0.04896484 4.13351563 -0.04896484 4.13351563 -0.03515625 2.484375 C-0.02355469 1.66453125 -0.01195312 0.8446875 0 0 Z " fill="#04333D" transform="translate(56,52)"/>
<path d="M0 0 C0.99 0.33 1.98 0.66 3 1 C3 2.65 3 4.3 3 6 C1.68 5.67 0.36 5.34 -1 5 C-1.33 3.68 -1.66 2.36 -2 1 C-1.34 0.67 -0.68 0.34 0 0 Z " fill="#0F6F77" transform="translate(51,10)"/>
<path d="M0 0 C-0.33 0.66 -0.66 1.32 -1 2 C-1.99 2 -2.98 2 -4 2 C-4 2.99 -4 3.98 -4 5 C-5.32 5 -6.64 5 -8 5 C-5.96115496 0.48541456 -5.19128917 0 0 0 Z " fill="#005862" transform="translate(56,82)"/>
<path d="M0 0 C2.97 1.98 2.97 1.98 6 4 C5.67 4.99 5.34 5.98 5 7 C4.01 6.67 3.02 6.34 2 6 C0.8125 2.9375 0.8125 2.9375 0 0 Z " fill="#03353E" transform="translate(50,46)"/>
<path d="M0 0 C-0.33 0.99 -0.66 1.98 -1 3 C-4.0625 4.1875 -4.0625 4.1875 -7 5 C-7 4.01 -7 3.02 -7 2 C-4.35261084 0.5393715 -3.10551666 0 0 0 Z " fill="#003A42" transform="translate(19,20)"/>
<path d="M0 0 C-1.45264038 0.8638129 -2.9123163 1.71580454 -4.375 2.5625 C-5.59316406 3.27599609 -5.59316406 3.27599609 -6.8359375 4.00390625 C-7.55007813 4.33261719 -8.26421875 4.66132813 -9 5 C-9.66 4.67 -10.32 4.34 -11 4 C-7.84441727 0.34616736 -4.73375145 -1.57791715 0 0 Z " fill="#002830" transform="translate(17,19)"/>
<path d="M0 0 C0.66 0.33 1.32 0.66 2 1 C1.01 2.485 1.01 2.485 0 4 C1.32 4.33 2.64 4.66 4 5 C2.02 5.66 0.04 6.32 -2 7 C-2.33 6.34 -2.66 5.68 -3 5 C-2.34 5 -1.68 5 -1 5 C-0.67 3.35 -0.34 1.7 0 0 Z " fill="#2B8F98" transform="translate(48,83)"/>
<path d="M0 0 C1.65 0 3.3 0 5 0 C5 0.99 5 1.98 5 3 C5.99 3.33 6.98 3.66 8 4 C6.68 4.33 5.36 4.66 4 5 C2.68 3.35 1.36 1.7 0 0 Z " fill="#238990" transform="translate(21,74)"/>
<path d="M0 0 C1.65 0 3.3 0 5 0 C4.67 0.99 4.34 1.98 4 3 C1.9375 3.6875 1.9375 3.6875 0 4 C0 2.68 0 1.36 0 0 Z " fill="#0F6970" transform="translate(75,67)"/>
<path d="M0 0 C3.37503669 1.1858237 5.64722731 2.27573689 8 5 C7.01 5.33 6.02 5.66 5 6 C5 5.34 5 4.68 5 4 C4.360625 3.896875 3.72125 3.79375 3.0625 3.6875 C2.381875 3.460625 1.70125 3.23375 1 3 C0.67 2.01 0.34 1.02 0 0 Z " fill="#248B95" transform="translate(53,10)"/>
<path d="M0 0 C6.52307692 1.47692308 6.52307692 1.47692308 8.9375 4.125 C9.288125 4.74375 9.63875 5.3625 10 6 C6.40992874 4.66654496 3.20429093 3.1056769 0 1 C0 0.67 0 0.34 0 0 Z " fill="#012C35" transform="translate(61,8)"/>
<path d="M0 0 C-0.33 0.99 -0.66 1.98 -1 3 C-3.5625 4.1875 -3.5625 4.1875 -6 5 C-6.33 4.34 -6.66 3.68 -7 3 C-3.375 0 -3.375 0 0 0 Z " fill="#00363D" transform="translate(60,85)"/>
<path d="M0 0 C-2.31 1.32 -4.62 2.64 -7 4 C-7.33 3.01 -7.66 2.02 -8 1 C-3.375 -1.125 -3.375 -1.125 0 0 Z " fill="#00535C" transform="translate(66,77)"/>
</svg>
